<svg width="12" height="18" viewBox="0 0 12 18" fill="none" xmlns="http://www.w3.org/2000/svg">
<path d="M4.94515 17C4.94515 17.4142 5.28094 17.75 5.69515 17.75C6.10937 17.75 6.44515 17.4142 6.44515 17L4.94515 17ZM6.22548 0.469669C5.93259 0.176777 5.45772 0.176777 5.16482 0.469669L0.391852 5.24264C0.098959 5.53553 0.098959 6.01041 0.391852 6.3033C0.684746 6.59619 1.15962 6.59619 1.45251 6.3033L5.69515 2.06066L9.93779 6.3033C10.2307 6.59619 10.7056 6.59619 10.9985 6.3033C11.2913 6.01041 11.2913 5.53553 10.9985 5.24264L6.22548 0.469669ZM6.44515 17L6.44515 1L4.94515 1L4.94515 17L6.44515 17Z" fill="#22CCC2"/>
</svg>
