<svg width="12" height="18" viewBox="0 0 12 18" fill="none" xmlns="http://www.w3.org/2000/svg">
<path d="M6.71581 1C6.71581 0.585786 6.38002 0.25 5.96581 0.25C5.55159 0.25 5.21581 0.585786 5.21581 1H6.71581ZM5.43547 17.5303C5.72837 17.8232 6.20324 17.8232 6.49614 17.5303L11.2691 12.7574C11.562 12.4645 11.562 11.9896 11.2691 11.6967C10.9762 11.4038 10.5013 11.4038 10.2084 11.6967L5.96581 15.9393L1.72316 11.6967C1.43027 11.4038 0.955398 11.4038 0.662504 11.6967C0.369611 11.9896 0.369611 12.4645 0.662504 12.7574L5.43547 17.5303ZM5.21581 1V17H6.71581V1H5.21581Z" fill="#6622CC"/>
</svg>
