<svg width="46" height="48" viewBox="0 0 46 48" fill="none" xmlns="http://www.w3.org/2000/svg">
<path d="M13.01 7.85681C12.397 6.795 11.0313 6.42248 10.036 7.13845C6.69544 9.54148 4.07578 12.8357 2.48987 16.6644C0.619711 21.1794 0.291605 26.1853 1.55645 30.9058C2.82129 35.6262 5.6084 39.7974 9.4855 42.7724C13.3626 45.7474 18.113 47.36 23 47.36C27.887 47.36 32.6374 45.7474 36.5145 42.7724C40.3916 39.7974 43.1787 35.6262 44.4436 30.9058C45.7084 26.1853 45.3803 21.1794 43.5101 16.6644C41.9242 12.8357 39.3046 9.54148 35.964 7.13845C34.9687 6.42248 33.603 6.795 32.99 7.85681C32.377 8.91862 32.7513 10.2659 33.7283 11.0065C36.2305 12.9032 38.1965 15.4384 39.4081 18.3635C40.9042 21.9755 41.1667 25.9803 40.1548 29.7566C39.143 33.533 36.9133 36.8699 33.8116 39.25C30.7099 41.63 26.9096 42.92 23 42.92C19.0904 42.92 15.2901 41.63 12.1884 39.25C9.08672 36.8699 6.85703 33.533 5.84516 29.7566C4.83328 25.9803 5.09577 21.9755 6.5919 18.3635C7.80355 15.4384 9.76947 12.9032 12.2717 11.0065C13.2488 10.2659 13.623 8.91862 13.01 7.85681Z" fill="#6622CC"/>
<rect x="20.78" width="4.44" height="14.8" rx="2.22" fill="#6622CC"/>
</svg>
