<svg width="24" height="24" viewBox="0 0 24 24" fill="none" xmlns="http://www.w3.org/2000/svg">
<path d="M20.9717 4.97739C20.6672 4.8375 20.3318 4.80073 20.0083 4.87176C19.6847 4.94279 19.3877 5.11841 19.155 5.37625L17 7.7529L13.1783 3.53817C12.8658 3.19358 12.4419 3 12 3C11.5581 3 11.1342 3.19358 10.8217 3.53817L7 7.7529L4.845 5.37625C4.61191 5.11927 4.31497 4.94428 3.99172 4.87338C3.66846 4.80249 3.33341 4.83889 3.02891 4.97798C2.72441 5.11707 2.46414 5.3526 2.281 5.6548C2.09786 5.957 2.00007 6.3123 2 6.67578V16.4048C2.00132 17.6231 2.44073 18.791 3.22185 19.6525C4.00296 20.5139 5.062 20.9985 6.16667 21H17.8333C18.938 20.9985 19.997 20.5139 20.7782 19.6525C21.5593 18.791 21.9987 17.6231 22 16.4048V6.67578C22.0001 6.31227 21.9024 5.9569 21.7194 5.65459C21.5364 5.35228 21.2761 5.11661 20.9717 4.97739Z" fill="url(#paint0_linear_10_528)"/>
<defs>
<linearGradient id="paint0_linear_10_528" x1="-5.5" y1="-1.5" x2="28" y2="27.5" gradientUnits="userSpaceOnUse">
<stop stop-color="#6622CC"/>
<stop offset="1" stop-color="#22CCC2"/>
</linearGradient>
</defs>
</svg>
