<svg width="118" height="18"  xmlns="http://www.w3.org/2000/svg">
<path d="M12.944 6.312C12.944 4.056 11.168 2.208 8.912 2.088V2.064H0.128V18H2.432V10.584H9.056L9.032 10.56C11.216 10.392 12.944 8.544 12.944 6.312ZM8.696 8.28H2.432V4.368H8.528C8.528 4.368 8.528 4.368 8.552 4.368C8.6 4.368 8.648 4.368 8.696 4.368C9.752 4.368 10.64 5.256 10.64 6.312C10.64 7.392 9.752 8.28 8.696 8.28ZM24.5578 9.768L24.2698 9.336C24.2938 9.312 24.3178 9.312 24.3178 9.288C24.3418 9.288 24.3418 9.288 24.3418 9.288C24.3898 9.264 24.4378 9.24 24.4618 9.192H24.4858C24.5098 9.168 24.5578 9.144 24.6058 9.12C24.7018 9.048 24.7978 8.976 24.8698 8.904C24.8938 8.904 24.9178 8.88 24.9418 8.856C24.9898 8.832 25.0138 8.808 25.0378 8.784C25.0858 8.736 25.1338 8.688 25.1818 8.664L25.2058 8.64C25.2298 8.616 25.2778 8.592 25.3018 8.544C25.4218 8.472 25.5178 8.376 25.6138 8.256C26.6938 7.2 27.4618 5.856 27.7978 4.32C27.9178 3.768 27.9898 3.192 27.9898 2.592C27.9898 2.4 27.9898 2.208 27.9658 2.016H14.7418V18H17.0458V10.56H19.9978C20.0698 10.56 20.1178 10.56 20.1658 10.56C20.1898 10.56 20.2378 10.56 20.2618 10.56C20.3098 10.56 20.3578 10.56 20.3818 10.56C20.4058 10.56 20.4058 10.56 20.4298 10.56C20.4778 10.56 20.5498 10.56 20.6218 10.536C20.6938 10.536 20.7418 10.536 20.8138 10.536C20.8618 10.512 20.9338 10.512 20.9818 10.512C21.0058 10.512 21.0298 10.512 21.0538 10.488C21.1018 10.488 21.1498 10.488 21.1978 10.488C21.2218 10.464 21.2458 10.464 21.2698 10.464C21.2938 10.464 21.3418 10.464 21.3898 10.44C21.5098 10.416 21.6538 10.392 21.7978 10.368C21.8458 10.344 21.9178 10.344 21.9658 10.32C21.9898 10.32 21.9898 10.32 22.0138 10.32C22.0618 10.296 22.0858 10.296 22.1338 10.272C22.1578 10.272 22.1578 10.272 22.1578 10.272L22.3018 10.488L26.8858 18H29.5738L24.5578 9.768ZM22.2538 7.8C21.5578 8.112 20.7898 8.256 19.9978 8.256H17.0458V4.32H25.4218C25.1338 5.184 24.6538 5.976 24.0058 6.624C23.4778 7.128 22.9018 7.536 22.2538 7.8ZM31.3946 18V2.04H33.6986V18H31.3946ZM33.6266 2.112H31.4666V17.928H33.6266V2.112ZM31.3946 2.04V18H33.6986V2.04H31.3946ZM35.5083 18H37.8123V9.192L35.5083 6.888V18ZM42.6843 9.168L35.5083 2.016V5.256L37.8123 7.56L42.6843 12.432L43.5483 11.544L44.2923 10.8L47.4363 7.68V18H49.7403V2.112L42.6843 9.168ZM54.1198 10.608H64.3678V8.304H54.1198V5.52H51.8158V18H65.9278V15.72H54.1198V10.608ZM51.8158 2.064V4.368H65.9278V2.064H51.8158ZM79.9325 13.7695L83.7997 0.9375H87.7138L81.7723 18H78.1044L72.1864 0.9375H76.0888L79.9325 13.7695ZM92.3666 11.9883V18H88.8509V0.9375H95.5072C96.7884 0.9375 97.9134 1.17188 98.8822 1.64062C99.8587 2.10938 100.609 2.77734 101.132 3.64453C101.656 4.50391 101.917 5.48438 101.917 6.58594C101.917 8.25781 101.343 9.57812 100.195 10.5469C99.0541 11.5078 97.472 11.9883 95.4486 11.9883H92.3666ZM92.3666 9.14062H95.5072C96.4369 9.14062 97.1439 8.92188 97.6283 8.48438C98.1205 8.04688 98.3666 7.42188 98.3666 6.60938C98.3666 5.77344 98.1205 5.09766 97.6283 4.58203C97.1361 4.06641 96.4564 3.80078 95.5892 3.78516H92.3666V9.14062ZM117.738 18H114.223L107.379 6.77344V18H103.863V0.9375H107.379L114.234 12.1875V0.9375H117.738V18Z" fill="black"/>
</svg>
