<?xml-stylesheet type="text/css" href="../css/style.css"?>
<svg width="22" height="24" viewBox="0 0 22 24" fill="none" xmlns="http://www.w3.org/2000/svg">
<path class="tabbar-icon" d="M0.606997 18C0.803821 18.3416 1.06605 18.6411 1.37868 18.8812C1.69131 19.1214 2.04822 19.2976 2.429 19.3998C2.80978 19.502 3.20696 19.5281 3.59784 19.4766C3.98871 19.4252 4.36562 19.2972 4.707 19.1L5.152 18.843C5.992 19.5617 6.95753 20.119 8 20.487V21C8 21.7956 8.31607 22.5587 8.87868 23.1213C9.44129 23.6839 10.2043 24 11 24C11.7956 24 12.5587 23.6839 13.1213 23.1213C13.6839 22.5587 14 21.7956 14 21V20.487C15.0426 20.1184 16.0082 19.5604 16.848 18.841L17.295 19.099C17.9846 19.4968 18.8039 19.6044 19.5728 19.3981C20.3417 19.1918 20.9972 18.6886 21.395 17.999C21.7928 17.3094 21.9004 16.4901 21.6941 15.7212C21.4878 14.9523 20.9846 14.2968 20.295 13.899L19.851 13.643C20.0509 12.5554 20.0509 11.4406 19.851 10.353L20.295 10.097C20.6364 9.90002 20.9357 9.63771 21.1758 9.32506C21.4159 9.01241 21.592 8.65554 21.6941 8.27482C21.7963 7.8941 21.8224 7.49699 21.7711 7.10616C21.7198 6.71533 21.592 6.33844 21.395 5.997C21.198 5.65556 20.9357 5.35627 20.6231 5.1162C20.3104 4.87614 19.9535 4.70001 19.5728 4.59786C19.1921 4.49572 18.795 4.46956 18.4042 4.52089C18.0133 4.57221 17.6364 4.70002 17.295 4.897L16.85 5.154C16.0092 4.43617 15.0429 3.87983 14 3.513V3C14 2.20435 13.6839 1.44129 13.1213 0.87868C12.5587 0.31607 11.7956 0 11 0C10.2043 0 9.44129 0.31607 8.87868 0.87868C8.31607 1.44129 8 2.20435 8 3V3.513C6.95739 3.88157 5.99185 4.4396 5.152 5.159L4.705 4.9C4.01543 4.50218 3.19608 4.39457 2.42718 4.60086C1.65828 4.80715 1.00282 5.31044 0.604997 6C0.207172 6.68956 0.0995693 7.50892 0.305859 8.27782C0.512149 9.04672 1.01543 9.70218 1.705 10.1L2.149 10.356C1.94911 11.4436 1.94911 12.5584 2.149 13.646L1.705 13.902C1.01719 14.301 0.51548 14.9562 0.309692 15.7242C0.103904 16.4923 0.210807 17.3106 0.606997 18ZM11 8C11.7911 8 12.5645 8.2346 13.2223 8.67412C13.8801 9.11365 14.3928 9.73836 14.6955 10.4693C14.9983 11.2002 15.0775 12.0044 14.9231 12.7804C14.7688 13.5563 14.3878 14.269 13.8284 14.8284C13.269 15.3878 12.5563 15.7688 11.7804 15.9231C11.0044 16.0775 10.2002 15.9983 9.46926 15.6955C8.73836 15.3928 8.11364 14.8801 7.67412 14.2223C7.23459 13.5645 7 12.7911 7 12C7 10.9391 7.42142 9.92172 8.17157 9.17157C8.92172 8.42143 9.93913 8 11 8Z" fill="#B5AEBE"/>
</svg>
